<svg xmlns="http://www.w3.org/2000/svg" xmlns:xlink="http://www.w3.org/1999/xlink" width="240.02" height="240.02" viewBox="0 0 240.02 240.02">
  <defs>
    <path id="a" d="M0 0h240.02v240.02H0z"/>
  </defs>
  <clipPath id="b">
    <use xlink:href="#a" overflow="visible"/>
  </clipPath>
  <path clip-path="url(#b)" fill-rule="evenodd" clip-rule="evenodd" fill="#0A72BA" d="M183.446 212.797c-5.115-13.956-9.771-26.953-15.074-40.836-.855-2.244-2.608-4.503-4.556-5.91-7.844-5.666-15.928-11-24.349-16.748-.945 1.585-1.727 2.79-2.406 4.05-4.937 9.131-9.992 18.201-14.719 27.439-2.525 4.935-6.042 7.907-11.669 8.351-13.489 1.065-26.958 2.39-40.459 3.27-6.396.416-11.141-4.286-11.349-10.38-.198-5.835 4.142-10.611 10.306-11.158 10.076-.894 20.152-1.802 30.244-2.474 3.467-.229 5.666-1.314 7.316-4.642 4-8.071 8.429-15.935 12.801-23.816 1.173-2.111 1.244-3.398-.882-5.126-4.563-3.704-5.31-8.728-2.785-13.953 5.755-11.917 11.455-23.862 17.158-35.805.397-.832.645-1.736 1.259-3.421-6.584-.502-12.481-4.305-18.621 1.45-4.556 4.269-9.982 7.624-15.101 11.272-5.16 3.681-10.944 2.976-14.122-1.567-3.098-4.433-1.975-10.005 2.883-13.644 7.438-5.572 14.958-11.034 22.395-16.606 3.178-2.382 6.661-2.989 10.472-2.293 7.256 1.323 14.502 2.708 21.777 3.915 1.842.307 3.855.377 5.662-.02 11.119-2.449 19.357 3.398 22.36 14.283 1.357 4.919 5.527 9.118 8.739 13.404.463.616 2.823.174 4.135-.276 5.68-1.945 11.285-4.108 16.939-6.129 6.412-2.293 11.578-.297 13.559 5.165 1.989 5.486-.581 10.209-7.081 12.633-8.312 3.1-16.665 6.09-25.02 9.074-6.196 2.215-9.423 1.331-13.76-3.705-1.762-2.046-3.435-4.168-5.557-6.753-.889 1.401-1.589 2.317-2.091 3.331-3.521 7.094-6.854 14.286-10.565 21.278-1.464 2.758-.739 4.054 1.598 5.608 8.417 5.603 16.673 11.446 25.087 17.056 4.829 3.22 8.253 7.272 10.176 12.877 4.427 12.911 9.094 25.743 13.873 38.529 1.758 4.705 1.815 9.028-.975 13.272-2.063 2.225-5.254 2.225-8.362 2.225-2.636.001-7.889.001-9.236-3.22m9.237-168.806c-.096 11.255-8.905 19.9-20.141 19.766a19.774 19.774 0 0 1-19.596-19.951c.075-11.122 9.042-19.914 20.197-19.803 10.945.109 19.633 8.996 19.54 19.988"/>
  <path clip-path="url(#b)" fill="#179DD9" d="M30.531 157.257c-3.988 0-5.982-1.744-5.982-5.234 0-1.218.083-2.408.25-3.571h43.989c1.828 0 3.323.304 4.486.914 1.163.609 1.744 2.049 1.744 4.318a37.154 37.154 0 0 1-.165 3.573H30.531zm10.213-22.119c-3.987 0-5.981-1.745-5.981-5.234 0-1.218.084-2.41.25-3.573h43.988c1.828 0 3.324.305 4.486.913 1.163.61 1.745 2.05 1.745 4.321a37.14 37.14 0 0 1-.166 3.573H40.744zm15.022-20.922c-3.987 0-5.981-1.744-5.981-5.234 0-1.218.084-2.41.249-3.573h43.99c1.827 0 3.322.305 4.485.914 1.164.611 1.745 2.05 1.745 4.32a37.091 37.091 0 0 1-.166 3.573H55.766z"/>
</svg>
